<?xml version="1.0" encoding="utf-8"?>
<!-- Generator: Adobe Illustrator 16.0.0, SVG Export Plug-In . SVG Version: 6.00 Build 0)  -->
<!DOCTYPE svg PUBLIC "-//W3C//DTD SVG 1.1//EN" "http://www.w3.org/Graphics/SVG/1.1/DTD/svg11.dtd">
<svg version="1.1" id="Layer_1" xmlns="http://www.w3.org/2000/svg" xmlns:xlink="http://www.w3.org/1999/xlink" x="0px" y="0px"
	 width="200px" height="156px" viewBox="0 0 200 156" enable-background="new 0 0 200 156" xml:space="preserve">
<g id="_x23_4f4f4fff">
	<path fill="#828282" d="M0,23.3C1.78,12.19,11.57,2.81,22.97,2.52c51.32-0.04,102.639-0.03,153.959,0
		c11.35,0.22,21.1,9.49,23.07,20.48v110.54c-1.42,11.739-12.109,21.41-23.971,21.39c-49.68,0.18-99.359,0-149.039,0.08
		c-5.3,0.061-10.81-0.74-15.35-3.66C5.32,147.55,1.01,140.82,0,133.529V23.3 M20.28,14.59c-5.53,1.88-9.36,7.59-9.03,13.43
		c0,32.33,0.01,64.66-0.01,96.99c0.02,3.801-0.39,7.86,1.54,11.32c2.28,4.47,7.19,7.29,12.19,7.17c48.34,0,96.68,0,145.02,0
		c3.939-0.04,8.22,0.471,11.779-1.62c4.291-2.28,7.09-7.03,6.99-11.89c-0.01-34.01-0.01-68.02-0.01-102.03
		c0.439-7.05-5.51-13.99-12.689-13.95c-50.34-0.03-100.681,0.02-151.021-0.03C23.44,14,21.8,14.04,20.28,14.59z"/>
	<path fill="#828282" d="M24.93,24.91c2.2-1.92,5.42-1.49,7.77-0.09c17.51,15.43,35.03,30.86,52.31,46.54
		c4.38,5.33,10.1,9.4,15.1,14.121c22.24-19.911,44.451-39.86,66.65-59.811c1.44-1.36,3.28-2.32,5.32-1.94
		c4.609,0.16,6.641,6.7,3.279,9.69c-16.239,14.68-32.58,29.26-48.889,43.88c16.059,15.7,32.609,30.91,48.75,46.53
		c2.67,2.24,2.479,7.061-0.5,8.949c-2.041,1.561-5.191,1.311-7.091-0.359c-16.67-15.699-33.149-31.609-49.87-47.26
		c-4.51,4.05-9.02,8.09-13.529,12.13c-2.041,2.05-5.55,2.3-7.74,0.38c-4.6-3.97-9.05-8.13-13.64-12.12
		C66.4,100.891,50,116.26,33.58,131.63c-1.6,1.521-3.99,2.75-6.2,1.851c-3.53-0.83-5.35-5.461-3.3-8.461
		c1.24-1.74,2.92-3.08,4.46-4.529c13.59-12.721,27.17-25.43,40.75-38.15c1.7-1.51,3.39-3.029,4.81-4.81
		C57.62,63.16,41.46,48.4,25.09,33.89C22.32,31.76,22.21,27.13,24.93,24.91z"/>
</g>
<g id="_x23_00bcddff">
	<path fill="#00BCDD" d="M31.86,23.49c45.38,0.01,90.75,0.04,136.121-0.02c-22.561,20.51-45.32,40.8-67.98,61.2
		c-5.01-4.41-9.99-8.87-14.99-13.31C67.73,55.68,50.21,40.25,32.7,24.82C32.49,24.49,32.07,23.82,31.86,23.49z"/>
</g>
</svg>
