<?xml version="1.0" encoding="UTF-8" ?>
<!DOCTYPE svg PUBLIC "-//W3C//DTD SVG 1.1//EN" "http://www.w3.org/Graphics/SVG/1.1/DTD/svg11.dtd">
<svg width="300pt" height="445pt" viewBox="0 0 300 445" version="1.1" xmlns="http://www.w3.org/2000/svg">
<g id="#8c8c8cff">
<path fill="#8c8c8c" opacity="1.00" d=" M 114.34 2.52 C 117.53 1.61 121.29 3.18 122.71 6.21 C 126.94 14.53 131.06 22.90 135.24 31.24 C 147.00 31.25 158.76 31.30 170.52 31.21 C 177.01 22.46 183.53 13.72 190.14 5.06 C 192.88 1.29 199.10 1.42 201.79 5.20 C 203.91 7.83 203.72 11.88 201.59 14.45 C 197.42 20.08 193.17 25.65 188.99 31.26 C 218.02 31.25 247.05 31.23 276.08 31.27 C 287.55 31.22 297.62 41.49 297.47 52.93 C 297.54 173.31 297.47 293.68 297.51 414.06 C 297.82 422.38 293.35 430.88 285.79 434.63 C 281.61 437.00 276.69 437.34 271.99 437.27 C 190.98 437.20 109.97 437.33 28.97 437.20 C 17.67 437.25 7.39 427.33 7.49 415.96 C 7.52 294.62 7.48 173.28 7.51 51.94 C 7.70 40.81 17.80 31.15 28.91 31.27 C 58.86 31.23 88.81 31.26 118.75 31.26 C 115.70 25.03 112.49 18.88 109.49 12.64 C 107.48 8.71 110.03 3.42 114.34 2.52 M 22.26 52.98 C 22.23 132.65 22.27 212.32 22.25 291.99 C 41.73 292.00 61.22 292.02 80.70 291.98 C 82.95 283.06 89.14 275.22 97.48 271.25 C 106.15 267.21 114.57 262.67 123.25 258.67 C 123.25 258.03 123.25 256.75 123.25 256.11 C 111.09 249.52 102.66 237.57 98.60 224.54 C 94.90 222.32 91.56 219.33 89.59 215.44 C 86.40 209.47 86.84 202.41 87.23 195.88 C 87.63 189.91 90.98 184.63 95.36 180.74 C 96.53 170.83 100.33 161.56 104.38 152.55 C 105.23 145.50 101.11 138.51 102.57 131.38 C 103.88 126.88 109.22 124.13 113.65 125.68 C 117.40 126.78 119.12 130.72 122.27 132.78 C 129.99 139.03 140.39 140.75 150.06 139.65 C 165.38 139.31 181.98 141.68 194.12 151.83 C 202.79 159.00 207.65 169.83 209.41 180.77 C 212.48 183.44 215.16 186.69 216.49 190.59 C 218.33 195.53 217.67 200.87 217.73 206.03 C 217.63 213.72 212.96 220.91 206.25 224.54 C 202.19 237.57 193.77 249.61 181.53 256.09 C 181.52 256.73 181.52 258.01 181.51 258.65 C 190.56 263.20 199.55 267.87 208.58 272.46 C 216.18 276.42 221.74 283.75 223.94 291.99 C 243.55 292.00 263.15 292.01 282.76 291.99 C 282.74 214.65 282.75 137.31 282.75 59.97 C 282.69 57.20 282.98 54.38 282.50 51.64 C 281.80 48.28 278.48 45.82 275.08 46.00 C 230.93 45.99 186.78 46.00 142.64 46.00 C 143.88 48.50 145.12 51.00 146.35 53.50 C 151.43 52.71 156.72 52.76 161.62 54.48 C 174.96 58.60 183.79 73.24 181.13 86.98 C 179.02 101.47 164.60 112.73 150.01 111.13 C 137.45 110.31 126.19 100.38 123.92 87.98 C 121.67 77.93 125.52 67.00 133.29 60.31 C 130.89 55.54 128.52 50.76 126.12 46.00 C 96.10 46.00 66.07 46.00 36.04 46.00 C 33.35 46.03 30.64 45.83 27.96 46.19 C 24.75 46.69 22.19 49.73 22.26 52.98 M 153.55 67.73 C 155.40 72.57 159.05 76.82 159.78 82.01 C 160.32 88.27 151.82 92.03 147.44 87.60 C 144.30 83.66 142.81 78.65 140.24 74.33 C 135.65 81.51 138.75 92.01 146.71 95.23 C 154.70 99.18 165.03 93.50 166.52 84.86 C 168.39 76.68 161.69 68.53 153.55 67.73 M 119.46 148.79 C 120.35 156.37 115.70 162.74 113.30 169.55 C 110.82 176.09 109.81 183.05 109.15 189.98 C 106.41 191.43 103.00 192.81 102.15 196.13 C 101.54 199.93 101.34 203.98 102.37 207.72 C 103.63 211.30 107.59 212.24 110.82 213.17 C 112.45 219.67 114.44 226.21 118.26 231.80 C 122.74 238.90 130.05 243.66 137.87 246.37 C 138.07 250.93 138.03 255.50 138.00 260.07 C 138.11 264.67 135.25 269.07 131.20 271.15 C 121.89 275.96 112.36 280.35 103.03 285.13 C 100.03 286.55 97.98 289.21 96.26 291.95 C 133.58 292.03 170.91 292.04 208.23 291.94 C 205.09 286.43 198.92 284.28 193.63 281.45 C 187.19 278.20 180.77 274.87 174.33 271.62 C 170.87 269.95 168.06 266.86 167.20 263.07 C 166.25 257.69 167.02 252.19 166.68 246.77 C 171.70 244.29 177.09 242.24 181.15 238.23 C 188.35 231.74 191.84 222.37 194.08 213.18 C 197.56 212.25 201.83 210.96 202.78 206.95 C 203.16 203.42 203.21 199.82 202.76 196.29 C 202.06 192.87 198.48 191.69 195.95 189.92 C 195.22 188.02 195.29 185.92 194.93 183.94 C 193.73 175.09 189.54 166.12 181.81 161.18 C 172.64 155.20 161.25 154.22 150.57 154.37 C 139.93 155.49 128.98 153.75 119.46 148.79 M 22.25 306.75 C 22.25 342.87 22.25 378.98 22.25 415.10 C 21.94 419.31 26.03 422.71 30.07 422.48 C 111.72 422.51 193.38 422.52 275.03 422.47 C 279.19 422.72 282.89 419.07 282.72 414.92 C 282.73 378.84 282.84 342.76 282.67 306.68 C 195.86 306.83 109.06 306.70 22.25 306.75 Z" />
<path fill="#8c8c8c" opacity="1.00" d=" M 114.37 328.47 C 138.91 327.96 163.51 328.41 188.07 328.24 C 191.95 327.90 195.74 330.88 196.01 334.84 C 196.66 339.29 192.55 343.45 188.10 343.00 C 164.04 342.98 139.98 343.04 115.92 342.97 C 111.81 343.02 108.36 339.04 108.82 335.00 C 109.07 331.94 111.34 329.14 114.37 328.47 Z" />
<path fill="#8c8c8c" opacity="1.00" d=" M 86.30 357.32 C 129.88 357.15 173.47 357.32 217.06 357.24 C 220.97 356.80 224.77 359.94 224.99 363.89 C 225.60 368.33 221.44 372.41 217.03 371.99 C 173.99 372.01 130.95 371.99 87.91 372.01 C 83.93 372.33 79.86 369.22 79.94 365.06 C 79.45 361.32 82.51 357.51 86.30 357.32 Z" />
<path fill="#8c8c8c" opacity="1.00" d=" M 85.32 386.43 C 90.21 386.58 96.55 384.60 100.22 388.87 C 103.92 393.06 100.92 400.88 95.13 400.90 C 90.82 400.81 85.59 402.12 82.08 398.94 C 78.09 395.25 79.83 387.55 85.32 386.43 Z" />
<path fill="#8c8c8c" opacity="1.00" d=" M 121.39 386.48 C 126.90 385.95 132.49 386.38 138.03 386.25 C 142.14 386.00 145.77 389.93 145.28 394.00 C 145.30 397.81 141.81 400.96 138.09 400.96 C 133.02 401.02 127.93 401.10 122.86 400.91 C 118.86 400.81 115.57 396.88 116.08 392.93 C 116.34 389.98 118.46 387.19 121.39 386.48 Z" />
<path fill="#8c8c8c" opacity="1.00" d=" M 165.30 386.38 C 170.15 386.57 176.43 384.63 180.01 388.97 C 183.61 393.24 180.56 400.58 174.97 400.90 C 170.30 400.85 164.27 402.30 160.97 398.03 C 157.75 394.02 160.15 387.20 165.30 386.38 Z" />
<path fill="#8c8c8c" opacity="1.00" d=" M 201.31 386.42 C 206.85 386.05 212.44 386.31 217.99 386.27 C 221.24 386.20 224.22 388.73 224.82 391.90 C 225.99 396.12 222.55 400.80 218.17 400.92 C 213.08 401.09 207.98 401.02 202.89 400.96 C 198.83 400.93 195.36 397.11 195.74 393.07 C 195.90 389.96 198.21 387.02 201.31 386.42 Z" />
</g>
<g id="#03bdd6ff">
<path fill="#03bdd6" opacity="1.00" d=" M 119.46 148.79 C 128.98 153.75 139.93 155.49 150.57 154.37 C 161.25 154.22 172.64 155.20 181.81 161.18 C 189.54 166.12 193.73 175.09 194.93 183.94 C 195.29 185.92 195.22 188.02 195.95 189.92 C 198.48 191.69 202.06 192.87 202.76 196.29 C 203.21 199.82 203.16 203.42 202.78 206.95 C 201.83 210.96 197.56 212.25 194.08 213.18 C 191.84 222.37 188.35 231.74 181.15 238.23 C 177.09 242.24 171.70 244.29 166.68 246.77 C 167.02 252.19 166.25 257.69 167.20 263.07 C 168.06 266.86 170.87 269.95 174.33 271.62 C 180.77 274.87 187.19 278.20 193.63 281.45 C 198.92 284.28 205.09 286.43 208.23 291.94 C 170.91 292.04 133.58 292.03 96.26 291.95 C 97.98 289.21 100.03 286.55 103.03 285.13 C 112.36 280.35 121.89 275.96 131.20 271.15 C 135.25 269.07 138.11 264.67 138.00 260.07 C 138.03 255.50 138.07 250.93 137.87 246.37 C 130.05 243.66 122.74 238.90 118.26 231.80 C 114.44 226.21 112.45 219.67 110.82 213.17 C 107.59 212.24 103.63 211.30 102.37 207.72 C 101.34 203.98 101.54 199.93 102.15 196.13 C 103.00 192.81 106.41 191.43 109.15 189.98 C 109.81 183.05 110.82 176.09 113.30 169.55 C 115.70 162.74 120.35 156.37 119.46 148.79 Z" />
</g>
</svg>
