<?xml version="1.0" encoding="utf-8"?>
<!-- Generator: Adobe Illustrator 16.0.0, SVG Export Plug-In . SVG Version: 6.00 Build 0)  -->
<!DOCTYPE svg PUBLIC "-//W3C//DTD SVG 1.1//EN" "http://www.w3.org/Graphics/SVG/1.1/DTD/svg11.dtd">
<svg version="1.1" id="Layer_1" xmlns="http://www.w3.org/2000/svg" xmlns:xlink="http://www.w3.org/1999/xlink" x="0px" y="0px"
	 width="200px" height="199px" viewBox="0 0 200 199" enable-background="new 0 0 200 199" xml:space="preserve">
<path fill="#878787" d="M36.98,0h6.56c4.79,0.91,9.09,3.5,12.5,6.92c7.86,7.83,15.69,15.68,23.53,23.52
	c3.44,3.45,6.35,7.65,7.27,12.52c1.46,6.77-1.35,13.87-6.13,18.69c-4.8,4.89-9.71,9.67-14.52,14.55c6.74,14.19,17.5,26,28.74,36.78
	c8.349,7.528,17.27,14.74,27.61,19.369c4.3-4.341,8.62-8.641,12.931-12.971c3.459-3.47,7.639-6.521,12.549-7.42
	c6.32-1.432,13.051,0.91,17.722,5.25c8.88,8.46,17.21,17.49,25.96,26.09c3.199,3.16,5.619,7.2,6.38,11.672
	c1.34,6.85-1.472,14.01-6.302,18.868c-4.948,5.021-10.068,9.882-14.828,15.091c-5.29,5.791-12.82,9.09-20.521,10.069h-8.9
	c-14.01-1.392-27.35-6.41-39.868-12.66c-37.38-18.399-68.38-48.649-89.46-84.43C9.26,86,1.51,68.78,0,50.37v-5.93
	c0.41-7.67,3.13-15.29,8.36-21c5.3-5.72,11-11.05,16.43-16.64C28.06,3.34,32.41,1.14,36.98,0 M38.45,12.49
	c-4.98,1.9-8,6.63-11.86,10.05C21.86,27.71,15.5,32,13.4,39.03c-2.18,7.73-0.74,15.92,1.19,23.54c4.61,15.89,12.19,30.8,21.5,44.43
	c20.84,30.93,49.98,56.471,84.16,71.641c9.07,4.061,18.67,7.239,28.62,8.101c5.13,0.47,10.55-0.181,15-2.931
	c4.319-2.551,7.03-6.91,10.67-10.24c3.56-3.811,7.97-6.909,10.681-11.439c1.92-3.14,0.689-7.158-1.811-9.568
	c-8.811-8.852-17.641-17.66-26.471-26.48c-2.689-2.87-7.239-2.859-10.141-0.311c-6.119,5.58-11.658,11.779-17.729,17.42
	c-2.961,2.761-7.68,3.041-11.07,0.899c-16.88-8.08-31.2-20.608-43.65-34.42c-8.11-9.25-15.75-19.2-20.38-30.69
	c-1.52-3.62-0.68-8.1,2.34-10.69c5.23-4.76,10.09-9.9,15.14-14.85c1.75-1.75,3.37-3.86,3.57-6.42c0.1-3.18-2.18-5.7-4.22-7.85
	c-8.01-7.97-15.97-15.98-23.97-23.96C44.67,13.08,41.51,11.47,38.45,12.49z"/>
<g id="_x23_00bcddff">
	<path fill="#00BCDD" d="M38.45,12.49c3.06-1.02,6.22,0.59,8.38,2.72c8,7.98,15.96,15.99,23.97,23.96c2.04,2.15,4.32,4.67,4.22,7.85
		c-0.2,2.56-1.82,4.67-3.57,6.42c-5.05,4.95-9.91,10.09-15.14,14.85c-3.02,2.59-3.86,7.07-2.34,10.69
		c4.63,11.49,12.27,21.44,20.38,30.69c12.45,13.811,26.77,26.34,43.65,34.42c3.391,2.141,8.109,1.86,11.07-0.9
		c6.07-5.64,11.609-11.84,17.729-17.42c2.9-2.549,7.45-2.56,10.141,0.312c8.83,8.819,17.66,17.63,26.471,26.479
		c2.5,2.41,3.73,6.431,1.811,9.569c-2.711,4.53-7.121,7.63-10.681,11.44c-3.64,3.33-6.351,7.688-10.67,10.24
		c-4.45,2.75-9.87,3.398-15,2.93c-9.95-0.86-19.55-4.04-28.62-8.1C86.07,163.471,56.93,137.93,36.09,107
		c-9.31-13.63-16.89-28.54-21.5-44.43c-1.93-7.62-3.37-15.81-1.19-23.54c2.1-7.03,8.46-11.32,13.19-16.49
		C30.45,19.12,33.47,14.39,38.45,12.49z"/>
</g>
</svg>
