<?xml version="1.0" encoding="UTF-8" ?>
<!DOCTYPE svg PUBLIC "-//W3C//DTD SVG 1.1//EN" "http://www.w3.org/Graphics/SVG/1.1/DTD/svg11.dtd">
<svg width="300pt" height="289pt" viewBox="0 0 300 289" version="1.1" xmlns="http://www.w3.org/2000/svg">
<g id="#5e5d5dff">
<path fill="#5e5d5d" opacity="1.00" d=" M 0.00 27.24 C 2.96 12.97 16.48 1.88 31.07 1.79 C 78.69 1.69 126.33 1.79 173.96 1.74 C 181.78 1.67 189.73 4.12 195.74 9.22 C 202.93 15.04 207.35 24.06 207.65 33.30 C 208.09 57.79 207.26 82.30 208.08 106.78 C 225.39 106.75 242.70 106.70 260.01 106.79 C 279.00 107.23 295.82 123.98 296.23 142.99 C 296.27 167.99 296.24 193.00 296.25 218.00 C 296.19 225.90 293.00 233.80 287.23 239.25 C 279.56 246.76 268.51 249.66 258.02 249.74 C 236.37 249.76 214.72 249.74 193.06 249.74 C 191.85 261.11 190.94 272.52 189.58 283.86 C 188.99 288.53 182.28 290.14 179.41 286.53 C 169.26 276.39 159.40 265.98 149.25 255.85 C 147.17 253.87 145.54 251.29 143.03 249.85 C 134.69 249.37 126.25 250.41 117.97 248.94 C 110.07 247.61 102.33 244.16 96.82 238.24 C 91.60 232.87 88.85 225.40 88.75 217.96 C 88.74 193.30 88.76 168.64 88.74 143.98 C 88.76 140.42 89.49 136.93 90.33 133.49 C 88.58 133.49 86.82 133.49 85.06 133.50 C 76.59 142.91 68.18 152.38 59.72 161.80 C 56.66 165.57 49.67 162.83 49.86 158.00 C 49.92 149.81 50.74 141.64 50.70 133.44 C 43.64 133.48 36.56 133.63 29.50 133.40 C 15.58 132.62 3.11 121.92 0.00 108.36 L 0.00 27.24 M 11.05 33.94 C 10.91 55.29 11.06 76.65 10.98 98.01 C 10.96 101.54 11.18 105.17 12.56 108.46 C 15.46 115.92 23.02 121.45 31.08 121.51 C 39.68 121.56 48.28 121.39 56.88 121.56 C 60.28 121.44 63.31 124.55 62.95 127.96 C 62.73 133.96 62.35 139.96 62.22 145.97 C 68.40 138.21 74.01 129.99 80.31 122.35 C 85.52 120.61 91.21 121.89 96.62 121.50 C 103.49 112.92 113.93 107.16 125.00 106.78 C 148.54 106.64 172.09 106.89 195.64 106.66 C 195.89 82.44 195.69 58.21 195.74 33.99 C 195.76 23.47 186.52 13.88 175.96 13.76 C 127.65 13.74 79.33 13.76 31.01 13.75 C 20.43 13.87 11.20 23.42 11.05 33.94 M 112.18 123.16 C 104.99 127.91 100.56 136.40 100.50 144.99 C 100.51 168.99 100.47 192.99 100.52 216.99 C 100.40 224.61 105.06 231.93 112.10 234.90 C 123.37 240.05 136.06 236.51 147.89 238.13 C 150.57 239.27 152.10 241.96 154.21 243.85 C 162.69 252.08 170.57 261.00 179.24 268.99 C 180.09 260.28 180.89 251.56 181.85 242.86 C 182.06 239.85 185.06 237.64 187.97 237.77 C 212.01 237.71 236.05 237.78 260.09 237.75 C 266.82 237.49 273.97 235.68 278.89 230.79 C 282.61 227.26 284.43 222.09 284.49 217.03 C 284.52 193.02 284.49 169.01 284.50 145.00 C 284.45 137.83 281.39 130.74 276.18 125.82 C 271.08 120.97 264.03 118.41 257.02 118.51 C 214.01 118.50 170.99 118.50 127.98 118.50 C 122.42 118.54 116.77 119.94 112.18 123.16 Z" />
<path fill="#5e5d5d" opacity="1.00" d=" M 101.48 22.69 C 110.38 20.67 120.28 23.79 126.21 30.78 C 134.35 39.71 134.52 54.45 126.75 63.66 C 123.42 68.38 117.02 70.00 114.55 75.45 C 112.22 78.91 114.25 84.04 110.77 86.82 C 107.49 89.66 101.56 87.58 101.16 83.12 C 100.58 73.76 105.61 64.39 113.55 59.46 C 117.84 56.92 120.90 52.09 120.54 47.01 C 120.46 40.73 115.29 35.09 109.13 34.15 C 103.61 33.15 97.74 36.16 95.13 41.08 C 93.45 43.71 93.71 46.93 93.03 49.86 C 91.67 53.70 85.99 54.80 83.30 51.72 C 80.88 49.47 81.52 45.88 82.00 42.98 C 83.66 33.13 91.67 24.69 101.48 22.69 Z" />
<path fill="#5e5d5d" opacity="1.00" d=" M 104.44 93.64 C 108.60 91.61 113.97 95.48 112.88 100.08 C 112.42 104.47 106.66 106.55 103.34 103.81 C 99.89 101.31 100.53 95.35 104.44 93.64 Z" />
<path fill="#5e5d5d" opacity="1.00" d=" M 189.17 136.24 C 193.00 134.38 197.82 137.81 197.48 142.01 C 197.53 158.01 197.48 174.02 197.51 190.02 C 197.78 192.95 195.94 196.04 192.94 196.61 C 189.37 197.61 185.53 194.59 185.57 190.91 C 185.40 174.94 185.56 158.95 185.49 142.98 C 185.29 140.25 186.51 137.32 189.17 136.24 Z" />
<path fill="#5e5d5d" opacity="1.00" d=" M 188.41 204.29 C 192.35 201.74 198.18 205.24 197.48 209.97 C 197.28 214.55 191.31 216.96 187.84 214.16 C 184.58 211.72 184.98 206.39 188.41 204.29 Z" />
</g>
<g id="#03bdd6ff">
<path fill="#03bdd6" opacity="1.00" d=" M 11.05 33.94 C 11.20 23.42 20.43 13.87 31.01 13.75 C 79.33 13.76 127.65 13.74 175.96 13.76 C 186.52 13.88 195.76 23.47 195.74 33.99 C 195.69 58.21 195.89 82.44 195.64 106.66 C 172.09 106.89 148.54 106.64 125.00 106.78 C 113.93 107.16 103.49 112.92 96.62 121.50 C 91.21 121.89 85.52 120.61 80.31 122.35 C 74.01 129.99 68.40 138.21 62.22 145.97 C 62.35 139.96 62.73 133.96 62.95 127.96 C 63.31 124.55 60.28 121.44 56.88 121.56 C 48.28 121.39 39.68 121.56 31.08 121.51 C 23.02 121.45 15.46 115.92 12.56 108.46 C 11.18 105.17 10.96 101.54 10.98 98.01 C 11.06 76.65 10.91 55.29 11.05 33.94 M 101.48 22.69 C 91.67 24.69 83.66 33.13 82.00 42.98 C 81.52 45.88 80.88 49.47 83.30 51.72 C 85.99 54.80 91.67 53.70 93.03 49.86 C 93.71 46.93 93.45 43.71 95.13 41.08 C 97.74 36.16 103.61 33.15 109.13 34.15 C 115.29 35.09 120.46 40.73 120.54 47.01 C 120.90 52.09 117.84 56.92 113.55 59.46 C 105.61 64.39 100.58 73.76 101.16 83.12 C 101.56 87.58 107.49 89.66 110.77 86.82 C 114.25 84.04 112.22 78.91 114.55 75.45 C 117.02 70.00 123.42 68.38 126.75 63.66 C 134.52 54.45 134.35 39.71 126.21 30.78 C 120.28 23.79 110.38 20.67 101.48 22.69 M 104.44 93.64 C 100.53 95.35 99.89 101.31 103.34 103.81 C 106.66 106.55 112.42 104.47 112.88 100.08 C 113.97 95.48 108.60 91.61 104.44 93.64 Z" />
</g>
</svg>
