<?xml version="1.0" encoding="utf-8"?>
<!-- Generator: Adobe Illustrator 16.0.0, SVG Export Plug-In . SVG Version: 6.00 Build 0)  -->
<!DOCTYPE svg PUBLIC "-//W3C//DTD SVG 1.1//EN" "http://www.w3.org/Graphics/SVG/1.1/DTD/svg11.dtd">
<svg version="1.1" id="Layer_1" xmlns="http://www.w3.org/2000/svg" xmlns:xlink="http://www.w3.org/1999/xlink" x="0px" y="0px"
	 width="300px" height="425px" viewBox="0 0 300 425" enable-background="new 0 0 300 425" xml:space="preserve">
<g id="_x23_cbf2f9ff">
	<path fill="#B0E4EA" d="M141.46,6.34c28.88-1.84,58.319,5.09,83.16,20c24.93,14.82,45.149,37.41,57.05,63.86
		c10.33,22.84,14.609,48.43,12.12,73.38c-1.78,17.88-7.98,35.29-17.88,50.29c-13.03,19.94-31.58,35.34-50.19,49.851
		c-11,8.159-22.08,16.439-31.11,26.819c-5.77,6.739-10.199,14.72-12.22,23.399c-1.3,6.711-7.56,11.91-14.38,12.051
		c-11.67,0.02-23.34,0.02-35.01,0c-8.44-0.311-16.12-8.35-14.7-16.99c3.84-25.84,17.729-49.34,36.12-67.561
		c14.54-14.93,31.42-27.27,47.05-40.979c9.2-8.11,18.49-16.73,23.98-27.89c5.68-11.61,5.699-25.09,3.42-37.57
		c-3.62-20.22-15.53-38.8-32.45-50.47c-26.55-18.82-64.61-18.96-91.34-0.41c-17.62,11.98-30,31.36-33.311,52.42
		c-1.46,8.31-1.1,16.8-0.84,25.19c0.64,6.8-3.93,13.84-10.67,15.47c-10.21,3.1-20.35,6.44-30.55,9.58
		c-8.15,2.05-18.44-1.7-21.101-10.23c-2.51-9.63-2.08-19.67-2.119-29.53C6.96,114.36,19,81.99,40.13,57.07
		C65.03,27.18,102.62,8.44,141.46,6.34z"/>
</g>
<g id="_x23_5e5d5dff">
	<path fill="#5E5D5D" d="M130.23,358.24c8.86-1.07,17.86-0.221,26.78-0.49c5.8,0.2,12-0.84,17.42,1.811
		c5.04,2.39,8.1,7.91,8.08,13.42c-0.05,11.66,0.07,23.319-0.06,34.979c-0.24,7.5-6.79,13.82-14.261,13.98
		c-11.42,0.13-22.84,0.029-34.26,0.06c-5.11,0.04-10.41-2.359-13.13-6.811c-2.53-3.859-2.58-8.689-2.56-13.14
		c0.109-9.81-0.16-19.64,0.13-29.45C118.48,365.83,123.44,359.4,130.23,358.24z"/>
</g>
</svg>
